# xmcd
#
# Track frame offsets:
#	150
#	16862
#	34687
#	70242
#	88457
#	116802
#
# Disc length: 2015 seconds
# Revision: 0
# Processed by: cddbd v1.5.2PL0 Copyright (c) Steve Scherf et al.
# Submitted via: dBpowerAMP V12.0
#
DISCID=4c07dd06
DTITLE=Various Artist - I Need Somebody
DYEAR=2002
DGENRE=House
TTITLE0=Therese - I Need Somebody [Radio Cut]
TTITLE1=Therese - I Need Somebody [StoneBridge Radiomix]
TTITLE2=Therese - I Need Somebody [StoneBridge Clubmix]
TTITLE3=Therese - I Need Somebody [Masterminded Remix]
TTITLE4=Therese - I Need Somebody [Martin Venetjoki Remix]
TTITLE5=Tee feat. Therese - Everybody Say Oh!! [Radical Playaz Mix]
EXTD=
EXTT0=
EXTT1=
EXTT2=
EXTT3=
EXTT4=
EXTT5=
PLAYORDER=
